<?xml version="1.0" encoding="utf-8"?>
<!-- Generator: Adobe Illustrator 22.0.1, SVG Export Plug-In . SVG Version: 6.00 Build 0)  -->
<svg version="1.1" id="Layer_1" xmlns="http://www.w3.org/2000/svg" xmlns:xlink="http://www.w3.org/1999/xlink" x="0px" y="0px"
	 viewBox="0 0 14 21.2" style="enable-background:new 0 0 14 21.2;" xml:space="preserve">
<style type="text/css">
	.st0{fill:#FFFFFF;}
</style>
<g>
	<g>
		<path class="st0" d="M7.2,0.1c0.5,0,0.9,0.2,1.2,0.5C8.8,1,8.9,1.4,8.9,1.9S8.8,2.7,8.4,3.1C8.1,3.4,7.7,3.6,7.2,3.6h0l-3.7,0
			v10.8c0,0.5-0.2,0.9-0.5,1.2c-0.3,0.3-0.8,0.5-1.2,0.5s-0.9-0.2-1.2-0.5C0.2,15.3,0,14.9,0,14.4V1.8c0-0.5,0.2-0.9,0.5-1.2
			c0.3-0.3,0.7-0.5,1.2-0.5h0L7.2,0.1z"/>
	</g>
	<path class="st0" d="M3.5,19.4L3.5,19.4c0,1-0.8,1.7-1.7,1.7h0c-1,0-1.7-0.8-1.7-1.7v0c0-1,0.8-1.7,1.7-1.7h0
		C2.8,17.6,3.5,18.4,3.5,19.4z"/>
	<path class="st0" d="M14,1.8L14,1.8c0,1-0.8,1.7-1.8,1.7l0,0c-1,0-1.7-0.8-1.7-1.7v0c0-1,0.8-1.7,1.8-1.7l0,0
		C13.2,0.1,14,0.9,14,1.8z"/>
	<path class="st0" d="M8.9,10.6L8.9,10.6c0,1-0.8,1.7-1.8,1.7l0,0c-1,0-1.7-0.8-1.7-1.7v0c0-1,0.8-1.7,1.8-1.7l0,0
		C8.1,8.9,8.9,9.7,8.9,10.6z"/>
</g>
</svg>
